<?xml version="1.0" standalone="no"?>
<!DOCTYPE svg PUBLIC "-//W3C//DTD SVG 20010904//EN"
 "http://www.w3.org/TR/2001/REC-SVG-20010904/DTD/svg10.dtd">
<svg version="1.0" xmlns="http://www.w3.org/2000/svg"
 width="128.000000pt" height="128.000000pt" viewBox="0 0 128.000000 128.000000"
 preserveAspectRatio="xMidYMid meet">
<metadata>
Created by potrace 1.14, written by Peter Selinger 2001-2017
</metadata>
<g transform="translate(0.000000,128.000000) scale(0.100000,-0.100000)"
fill="#000000" stroke="none">
<path d="M670 1270 c0 -4 542 -361 597 -393 11 -7 13 24 11 194 l-3 203 -303
0 c-166 1 -302 -1 -302 -4z"/>
<path d="M0 1061 l0 -210 24 -18 c13 -10 181 -118 373 -241 191 -123 409 -263
483 -312 74 -48 195 -127 268 -174 l132 -85 0 213 0 213 -47 30 c-27 17 -174
112 -328 210 -154 99 -419 270 -588 381 -170 111 -311 202 -313 202 -2 0 -4
-94 -4 -209z"/>
</g>
</svg>
